<svg width="26" height="26" viewBox="0 0 26 26" fill="none" xmlns="http://www.w3.org/2000/svg">
<path d="M18.962 0H7.03795C3.15716 0 0 3.15716 0 7.03795V18.9622C0 22.8428 3.15716 25.9999 7.03795 25.9999H18.9622C22.8428 25.9999 25.9999 22.8428 25.9999 18.9622V7.03795C25.9999 3.15716 22.8428 0 18.962 0ZM24.4757 18.9622C24.4757 22.0023 22.0023 24.4757 18.962 24.4757H7.03795C3.99763 24.4757 1.52422 22.0023 1.52422 18.9622V7.03795C1.52422 3.99763 3.99763 1.52422 7.03795 1.52422H18.9622C22.0023 1.52422 24.4757 3.99763 24.4757 7.03795V18.9622Z" fill="#173E7D"/>
<path d="M12.9999 5.89083C9.07989 5.89083 5.89079 9.07989 5.89079 13C5.89079 16.9201 9.07989 20.1092 12.9999 20.1092C16.92 20.1092 20.1091 16.9201 20.1091 13C20.1091 9.07989 16.92 5.89083 12.9999 5.89083ZM12.9999 18.585C9.92056 18.585 7.41501 16.0796 7.41501 13C7.41501 9.92055 9.92056 7.41505 12.9999 7.41505C16.0795 7.41505 18.5849 9.92055 18.5849 13C18.5849 16.0796 16.0795 18.585 12.9999 18.585Z" fill="#173E7D"/>
<path d="M20.2791 3.36595C19.1207 3.36595 18.1785 4.30837 18.1785 5.46662C18.1785 6.62507 19.1207 7.5675 20.2791 7.5675C21.4376 7.5675 22.38 6.62507 22.38 5.46662C22.38 4.30818 21.4376 3.36595 20.2791 3.36595ZM20.2791 6.04307C19.9613 6.04307 19.7027 5.7844 19.7027 5.46662C19.7027 5.14865 19.9613 4.89018 20.2791 4.89018C20.5971 4.89018 20.8558 5.14865 20.8558 5.46662C20.8558 5.7844 20.5971 6.04307 20.2791 6.04307Z" fill="#173E7D"/>
</svg>
