<svg width="24" height="24" viewBox="0 0 24 24" fill="none" xmlns="http://www.w3.org/2000/svg">
<path d="M12 0.333336C5.56 0.333336 0.333336 5.56 0.333336 12C0.333336 18.44 5.56 23.6667 12 23.6667C18.44 23.6667 23.6667 18.44 23.6667 12C23.6667 5.56 18.44 0.333336 12 0.333336ZM10.8333 21.2517C6.225 20.68 2.66667 16.76 2.66667 12C2.66667 11.2767 2.76 10.5883 2.91167 9.91167L8.5 15.5V16.6667C8.5 17.95 9.55 19 10.8333 19V21.2517ZM18.8833 18.2883C18.58 17.3433 17.7167 16.6667 16.6667 16.6667H15.5V13.1667C15.5 12.525 14.975 12 14.3333 12H7.33334V9.66667H9.66667C10.3083 9.66667 10.8333 9.14167 10.8333 8.5V6.16667H13.1667C14.45 6.16667 15.5 5.11667 15.5 3.83334V3.355C18.9183 4.74334 21.3333 8.09167 21.3333 12C21.3333 14.4267 20.4 16.6317 18.8833 18.2883Z" fill="#173E7D"/>
</svg>
