<svg width="28" height="24" viewBox="0 0 28 24" fill="none" xmlns="http://www.w3.org/2000/svg">
<path d="M27.5673 0.657094C27.2255 0.233252 26.7131 0 26.1247 0C25.7797 0.00498871 25.4385 0.0737072 25.1179 0.202779L1.41688 9.36941C0.159068 9.8553 -0.0104631 10.585 0.000474411 10.9761C0.0114119 11.3673 0.219224 12.0842 1.50438 12.5003L1.52735 12.5069L6.44375 13.9325L9.10266 21.6337C9.46469 22.6836 10.2784 23.3363 11.2262 23.3363C11.8239 23.3363 12.4112 23.0825 12.9259 22.6027L15.9687 19.7682L20.3798 23.3667L20.4219 23.4005L20.4334 23.4099C20.9255 23.795 21.4593 23.9989 21.9816 23.9989C23.0026 23.9989 23.8158 23.2332 24.0531 22.0476L27.9359 2.62062C28.0918 1.84219 27.9611 1.14465 27.5673 0.657094ZM8.0882 13.6627L17.5732 8.75387L11.667 15.1115C11.5701 15.2154 11.5015 15.3429 11.4679 15.4816L10.3287 20.1555L8.0882 13.6627ZM11.8124 21.3822C11.773 21.4187 11.7331 21.4514 11.6937 21.4819L12.7503 17.1465L14.6726 18.7144L11.8124 21.3822ZM26.3281 2.29207L22.4442 21.7185C22.407 21.9046 22.2878 22.3373 21.9805 22.3373C21.829 22.3373 21.6387 22.2531 21.4434 22.1013L16.4455 18.0241L13.4694 15.5968L22.01 6.40251C22.1419 6.25988 22.22 6.07468 22.2306 5.87948C22.2411 5.68429 22.1833 5.49158 22.0675 5.33524C21.9516 5.17891 21.7851 5.06895 21.5971 5.0247C21.4092 4.98045 21.2119 5.00475 21.0398 5.09331L6.99227 12.3635L2.00915 10.9191L25.703 1.75576C25.8369 1.69905 25.9797 1.66733 26.1247 1.66213C26.175 1.66213 26.2647 1.66822 26.2975 1.70977C26.3412 1.76352 26.3965 1.9469 26.3281 2.29207Z" fill="#173E7D"/>
</svg>
