<svg width="86" height="19" viewBox="0 0 86 19" fill="none" xmlns="http://www.w3.org/2000/svg">
<path d="M26.9134 15.9019H28.2472L27.5748 14.2732L26.9134 15.9019ZM28.4098 16.2976H26.753L26.4147 17.1223H25.9554L27.3661 13.6787H27.7704L29.2206 17.1223H28.7526L28.4098 16.2976" fill="#050606"/>
<path d="M31.4486 16.3366C31.4486 16.11 31.264 15.9469 31.0069 15.9469H30.1346V16.7266H31.0113C31.264 16.7266 31.4486 16.5633 31.4486 16.3366V16.3366ZM30.9893 14.8571H30.1346V15.5646H30.9893C31.2244 15.5646 31.3783 15.4229 31.3783 15.2133C31.3783 14.9984 31.2201 14.8571 30.9893 14.8571ZM31.8792 16.3816C31.8792 16.8043 31.5277 17.1223 31.0618 17.1223H29.7259V14.4656H31.0487C31.4881 14.4656 31.7914 14.7448 31.7914 15.1411C31.7914 15.4073 31.6529 15.6375 31.4376 15.7443C31.7035 15.8411 31.8792 16.0867 31.8792 16.3816" fill="#050606"/>
<path d="M34.5686 14.8437H33.5777V17.1223H33.169V14.8437H32.1803V14.4656H34.5686V14.8437Z" fill="#050606"/>
<path d="M37.1657 15.7939C37.1657 15.2256 36.7527 14.8124 36.1836 14.8124C35.6145 14.8124 35.2014 15.2251 35.2014 15.7939C35.2014 16.3627 35.6145 16.7755 36.1836 16.7755C36.7527 16.7755 37.1657 16.3627 37.1657 15.7939ZM34.7752 15.7939C34.7752 14.993 35.3794 14.4079 36.1836 14.4079C36.99 14.4079 37.5942 14.998 37.5942 15.7939C37.5942 16.5899 36.99 17.18 36.1836 17.18C35.3794 17.18 34.7752 16.5899 34.7752 15.7939Z" fill="#050606"/>
<path d="M38.0183 15.7939C38.0183 15.002 38.6138 14.4079 39.4004 14.4079C40.0355 14.4079 40.5321 14.7854 40.6947 15.361H40.2794C40.1234 15.0204 39.7916 14.8124 39.4004 14.8124C38.8555 14.8124 38.4468 15.239 38.4468 15.7939C38.4468 16.3485 38.8599 16.7755 39.4004 16.7755C39.7916 16.7755 40.1124 16.5679 40.275 16.2126H40.6991C40.5365 16.799 40.0289 17.18 39.4004 17.18C38.6138 17.18 38.0183 16.5853 38.0183 15.7939" fill="#050606"/>
<path d="M41.501 15.5695H43.3489C43.2588 15.0966 42.8984 14.8034 42.4282 14.8034C41.9448 14.8034 41.5889 15.1069 41.501 15.5695ZM43.7598 15.9559H41.4922C41.5581 16.4481 41.925 16.7711 42.4282 16.7711C42.7974 16.7711 43.0918 16.5993 43.2566 16.3125H43.6983C43.4741 16.8602 43.0061 17.18 42.4282 17.18C41.657 17.18 41.0725 16.5853 41.0725 15.7935C41.0725 15.0029 41.657 14.4079 42.4282 14.4079C43.2346 14.4079 43.7686 15.029 43.7686 15.8047C43.7686 15.8552 43.7642 15.9059 43.7598 15.9559" fill="#050606"/>
<path d="M46.7502 15.7939C46.7502 15.2291 46.3393 14.8124 45.7746 14.8124C45.2121 14.8124 44.7947 15.2341 44.7947 15.7939C44.7947 16.3533 45.2121 16.7755 45.7746 16.7755C46.3393 16.7755 46.7502 16.3588 46.7502 15.7939ZM45.8054 14.4079C46.5986 14.4079 47.1742 14.9985 47.1742 15.7939C47.1742 16.5853 46.5986 17.18 45.8054 17.18C45.4055 17.18 45.0583 17.0246 44.8122 16.7665V18.0703H44.3947V14.4656H44.6826L44.7661 14.8721C45.0122 14.5833 45.3813 14.4079 45.8076 14.4079H45.8054Z" fill="#050606"/>
<path d="M49.5275 16.3366C49.5275 16.11 49.3452 15.9469 49.0881 15.9469H48.2157V16.7266H49.0925C49.3452 16.7266 49.5275 16.5633 49.5275 16.3366ZM49.0705 14.8571H48.2157V15.5646H49.0705C49.3056 15.5646 49.4572 15.4229 49.4572 15.2133C49.4572 14.9984 49.3012 14.8571 49.0705 14.8571ZM49.9604 16.3816C49.9604 16.8043 49.6088 17.1223 49.143 17.1223H47.807V14.4656H49.1276C49.5693 14.4656 49.8726 14.7448 49.8726 15.1411C49.8726 15.4073 49.7341 15.6375 49.5188 15.7443C49.7847 15.8411 49.9604 16.0867 49.9604 16.3816" fill="#050606"/>
<path d="M50.6327 14.4656H51.0503V17.1222H50.6327V14.4656ZM50.6151 13.5262H51.0679V14.0059H50.6151V13.5262Z" fill="#050606"/>
<path d="M51.683 15.7939C51.683 15.002 52.2784 14.4079 53.0651 14.4079C53.6979 14.4079 54.1968 14.7854 54.3572 15.361H53.9418C53.7858 15.0204 53.4562 14.8124 53.0651 14.8124C52.5179 14.8124 52.1092 15.239 52.1092 15.7939C52.1092 16.3485 52.5223 16.7755 53.0651 16.7755C53.4562 16.7755 53.7771 16.5679 53.9397 16.2126H54.3638C54.2012 16.799 53.6935 17.18 53.0651 17.18C52.2784 17.18 51.683 16.5853 51.683 15.7939" fill="#050606"/>
<path d="M58.4307 14.4656V17.1223H58.0176V14.8302H57.0399L56.8992 16.1734C56.8267 16.8835 56.5543 17.1354 55.9808 17.1354H55.9061V16.7446H56.0028C56.2994 16.7446 56.4532 16.584 56.495 16.1955L56.6883 14.4656H58.4307" fill="#050606"/>
<path d="M62.4363 15.7988C62.4363 15.2346 62.032 14.8124 61.5003 14.8124C60.9642 14.8124 60.5665 15.2346 60.5665 15.7988C60.5665 16.3579 60.9642 16.7755 61.5003 16.7755C62.0364 16.7755 62.4363 16.3579 62.4363 15.7988ZM62.8625 15.7988C62.8625 16.5947 62.2869 17.1804 61.5003 17.1804C60.7796 17.1804 60.2347 16.6862 60.149 15.9895H59.692V17.1273H59.2745V14.4657H59.692V15.5984H60.1512C60.2391 14.9017 60.7862 14.408 61.5003 14.408C62.2825 14.408 62.8625 14.9985 62.8625 15.7988" fill="#050606"/>
<path d="M64.2931 15.9307H63.9129V17.1223H63.4933V14.4656H63.9129V15.5435H64.2997L65.1193 14.4656H65.6291L64.6578 15.7395L65.7279 17.1223H65.2028L64.2931 15.9307" fill="#050606"/>
<path d="M65.8685 15.7939C65.8685 15.002 66.464 14.4079 67.2506 14.4079C67.8834 14.4079 68.3822 14.7854 68.5426 15.361H68.1273C67.9713 15.0204 67.6417 14.8124 67.2506 14.8124C66.7035 14.8124 66.2948 15.239 66.2948 15.7939C66.2948 16.3485 66.7079 16.7755 67.2506 16.7755C67.6417 16.7755 67.9625 16.5679 68.1251 16.2126H68.5492C68.3866 16.799 67.879 17.18 67.2506 17.18C66.464 17.18 65.8685 16.5853 65.8685 15.7939" fill="#050606"/>
<path d="M69.0435 15.5457H70.6057V15.9504H69.0435V15.5457Z" fill="#050606"/>
<path d="M72.1657 15.9307H71.7856V17.1223H71.366V14.4656H71.7856V15.5435H72.1723L72.9918 14.4656H73.5016L72.5326 15.7395L73.6004 17.1223H73.0775L72.1657 15.9307Z" fill="#050606"/>
<path d="M76.2218 14.4656V17.1223H75.8065V14.8302H74.8288L74.6904 16.1734C74.6157 16.8835 74.3432 17.1354 73.7697 17.1354H73.6972V16.7446H73.7917C74.0905 16.7446 74.2443 16.584 74.2839 16.1955L74.4772 14.4656H76.2218" fill="#050606"/>
<path d="M79.2366 15.794C79.2366 15.2291 78.8257 14.8124 78.261 14.8124C77.6985 14.8124 77.281 15.235 77.281 15.794C77.281 16.3538 77.6985 16.7755 78.261 16.7755C78.8257 16.7755 79.2366 16.3588 79.2366 15.794ZM79.665 14.4657V17.1223H79.3179L79.2739 16.7198C79.0278 17.0057 78.6609 17.1804 78.2302 17.1804C77.4436 17.1804 76.8525 16.5853 76.8525 15.794C76.8525 14.9985 77.4436 14.408 78.2302 14.408C78.6653 14.408 79.0344 14.5835 79.2783 14.873L79.331 14.4657H79.665" fill="#050606"/>
<path d="M80.2956 15.7939C80.2956 15.002 80.8888 14.4079 81.6776 14.4079C82.3104 14.4079 82.8092 14.7854 82.9695 15.361H82.5543C82.3983 15.0204 82.0687 14.8124 81.6776 14.8124C81.1305 14.8124 80.7218 15.239 80.7218 15.7939C80.7218 16.3485 81.1349 16.7755 81.6776 16.7755C82.0687 16.7755 82.3895 16.5679 82.5521 16.2126H82.974C82.8136 16.799 82.306 17.18 81.6776 17.18C80.891 17.18 80.2956 16.5853 80.2956 15.7939" fill="#050606"/>
<path d="M85.9052 14.4656L84.6373 17.232C84.3495 17.8611 84.0968 18.0703 83.5958 18.0703H83.3454V17.6921H83.5585C83.9144 17.6921 84.0397 17.5837 84.255 17.1402L84.3495 16.941L83.1674 14.4656H83.6222L84.567 16.4762L85.4569 14.4656H85.9052" fill="#050606"/>
<path d="M14.6133 6.27338V0.485314H17.5707V6.18384C17.5707 7.97385 18.3178 8.69012 19.5571 8.69012C20.7809 8.69012 21.528 7.97385 21.528 6.18384V0.485314H24.4415V6.27338C24.4415 9.39103 22.6178 11.1365 19.5263 11.1365C16.4348 11.1365 14.6133 9.39103 14.6133 6.27338Z" fill="#151515"/>
<path d="M38.1371 0.485287V10.9276H35.7026L31.0883 5.36332V10.9276H28.1901V0.485287H30.6247L35.2411 6.04952V0.485287H38.1371Z" fill="#151515"/>
<path d="M41.9778 0.485287H44.933V10.9276H41.9778V0.485287" fill="#151515"/>
<path d="M48.2487 5.70631C48.2487 2.52898 50.6855 0.276592 54.0011 0.276592C55.9281 0.276592 57.4815 0.977726 58.4966 2.24568L56.6136 3.94615C55.9566 3.1555 55.1502 2.72297 54.1505 2.72297C52.4322 2.72297 51.237 3.91631 51.237 5.70631C51.237 7.49654 52.4322 8.69009 54.1505 8.69009C55.1502 8.69009 55.9566 8.25735 56.6136 7.46669L58.4966 9.16738C57.4815 10.4353 55.9281 11.1364 54.0011 11.1364C50.6855 11.1364 48.2487 8.88409 48.2487 5.70631" fill="#151515"/>
<path d="M83.1851 10.9276L83.1565 5.39315L80.467 9.89835H79.1531L76.479 5.54237V10.9276H73.7456V0.485287H76.1801L79.854 6.51189L83.4399 0.485287H85.8745L85.9053 10.9276H83.1851" fill="#151515"/>
<path d="M68.5953 0.62706L67.5559 3.16053C68.3448 3.62443 68.8436 4.48795 68.8436 5.55247C68.8436 7.16034 67.7098 8.3155 66.1453 8.3155V8.31528C65.9102 8.31528 65.6861 8.28632 65.4708 8.23629L64.4468 10.7338C64.9763 10.8742 65.5455 10.9495 66.1453 10.9495V10.9493C69.4434 10.9493 71.7945 8.70085 71.7945 5.55204C71.7945 3.25907 70.5464 1.44449 68.5953 0.62706" fill="#3D5CB3"/>
<path d="M63.4273 5.55226C63.4273 3.95274 64.5787 2.78902 66.1454 2.78902C66.3673 2.78902 66.5804 2.81515 66.7848 2.85992L67.8087 0.362409C67.2901 0.227231 66.732 0.154816 66.1454 0.154816C62.8385 0.154816 60.4764 2.4118 60.4764 5.55205C60.4764 7.829 61.7178 9.64073 63.6624 10.4652L64.704 7.92666C63.9239 7.45726 63.4273 6.59967 63.4273 5.55226Z" fill="#3D5CB3"/>
<path d="M11.3921 2.16863H5.83966V3.26587H11.3921V2.16863Z" fill="#3D5CB3"/>
<path d="M11.3922 5.09689H0.878235V6.19412H11.3922V5.09689Z" fill="#3D5CB3"/>
<path d="M11.3922 8.02538H7.88763V9.12262H11.3922V8.02538Z" fill="#3D5CB3"/>
</svg>
