<svg width="86" height="19" viewBox="0 0 86 19" fill="none" xmlns="http://www.w3.org/2000/svg">
<path d="M26.43 15.9017H27.7631L27.0907 14.273L26.43 15.9017ZM27.9254 16.2974H26.2687L25.9317 17.122H25.472L26.8826 13.6787H27.286L28.7362 17.122H28.2676L27.9254 16.2974Z" fill="white"/>
<path d="M30.9642 16.3366C30.9642 16.11 30.7807 15.9467 30.5234 15.9467H29.6516V16.7264H30.5282C30.7807 16.7264 30.9642 16.5631 30.9642 16.3366V16.3366ZM30.5054 14.8572H29.6516V15.5644H30.5054C30.7407 15.5644 30.8934 15.4227 30.8934 15.2131C30.8934 14.9985 30.7366 14.8572 30.5054 14.8572ZM31.3961 16.3814C31.3961 16.8041 31.0439 17.122 30.5777 17.122H29.242V14.4657H30.5636C31.0048 14.4657 31.3076 14.7446 31.3076 15.1411C31.3076 15.4071 31.169 15.6375 30.9541 15.7444C31.2204 15.8409 31.3961 16.0865 31.3961 16.3814" fill="white"/>
<path d="M34.0837 14.8436H33.0942V17.122H32.6847V14.8436H31.6957V14.4657H34.0837V14.8436Z" fill="white"/>
<path d="M36.6828 15.794C36.6828 15.2254 36.2697 14.8122 35.7004 14.8122C35.1311 14.8122 34.718 15.2249 34.718 15.794C34.718 16.3625 35.1313 16.7755 35.7004 16.7755C36.2697 16.7755 36.6828 16.3625 36.6828 15.794ZM34.2902 15.794C34.2902 14.993 34.8946 14.4077 35.7004 14.4077C36.5063 14.4077 37.1104 14.9978 37.1104 15.794C37.1104 16.5899 36.5063 17.18 35.7004 17.18C34.8946 17.18 34.2902 16.5899 34.2902 15.794Z" fill="white"/>
<path d="M37.5351 15.794C37.5351 15.002 38.1301 14.4077 38.9169 14.4077C39.5513 14.4077 40.0487 14.7852 40.2098 15.361H39.7952C39.6387 15.0204 39.3085 14.8122 38.9169 14.8122C38.3709 14.8122 37.9626 15.2388 37.9626 15.794C37.9626 16.3485 38.3757 16.7755 38.9169 16.7755C39.308 16.7755 39.6293 16.5677 39.7914 16.2127H40.2151C40.0529 16.7988 39.5453 17.18 38.9169 17.18C38.1305 17.18 37.5351 16.585 37.5351 15.794Z" fill="white"/>
<path d="M41.0179 15.5692H42.8652C42.7751 15.0963 42.4154 14.8032 41.9445 14.8032C41.4616 14.8032 41.1047 15.1067 41.0179 15.5692ZM43.2758 15.9559H41.0085C41.0742 16.4479 41.4409 16.7709 41.9445 16.7709C42.3126 16.7709 42.6087 16.5991 42.7727 16.3123H43.2143C42.9891 16.86 42.5213 17.18 41.9445 17.18C41.1731 17.18 40.5882 16.5851 40.5882 15.7935C40.5882 15.0029 41.1731 14.4077 41.9445 14.4077C42.7516 14.4077 43.2848 15.029 43.2848 15.8047C43.2848 15.855 43.2802 15.9056 43.2758 15.9559" fill="white"/>
<path d="M46.2663 15.7937C46.2663 15.2289 45.8549 14.8121 45.2911 14.8121C44.7279 14.8121 44.3107 15.2342 44.3107 15.7937C44.3107 16.3531 44.7279 16.7755 45.2911 16.7755C45.8549 16.7755 46.2663 16.3588 46.2663 15.7937ZM45.3223 14.4077C46.1151 14.4077 46.6895 14.9982 46.6895 15.7939C46.6895 16.585 46.1151 17.18 45.3223 17.18C44.9224 17.18 44.5739 17.0244 44.3287 16.7663V18.07H43.9101V14.4656H44.1984L44.2817 14.8719C44.5282 14.5833 44.8963 14.4077 45.3225 14.4077H45.3223" fill="white"/>
<path d="M49.0444 16.3366C49.0444 16.11 48.861 15.9467 48.6037 15.9467H47.7318V16.7264H48.6085C48.861 16.7264 49.0444 16.5631 49.0444 16.3366V16.3366ZM48.5857 14.8572H47.7318V15.5644H48.5857C48.821 15.5644 48.9737 15.4227 48.9737 15.2131C48.9737 14.9985 48.817 14.8572 48.5857 14.8572ZM49.4766 16.3814C49.4766 16.8041 49.1242 17.122 48.6579 17.122H47.3223V14.4657H48.6439C49.0851 14.4657 49.3878 14.7446 49.3878 15.1411C49.3878 15.4071 49.2492 15.6375 49.0343 15.7444C49.3006 15.8409 49.4766 16.0865 49.4766 16.3814" fill="white"/>
<path d="M50.1484 14.4657H50.5669V17.122H50.1484V14.4657ZM50.131 13.5262H50.5843V14.0059H50.131V13.5262Z" fill="white"/>
<path d="M51.1985 15.794C51.1985 15.002 51.7935 14.4077 52.5803 14.4077C53.2147 14.4077 53.7123 14.7852 53.8732 15.361H53.4588C53.3023 15.0204 52.9721 14.8122 52.5803 14.8122C52.0343 14.8122 51.6263 15.2388 51.6263 15.794C51.6263 16.3485 52.0394 16.7755 52.5803 16.7755C52.9717 16.7755 53.2929 16.5677 53.455 16.2127H53.8787C53.7163 16.7988 53.2089 17.18 52.5803 17.18C51.794 17.18 51.1985 16.585 51.1985 15.794" fill="white"/>
<path d="M57.9476 14.4656V17.122H57.5332V14.8302H56.5558L56.4161 16.1734C56.3429 16.8835 56.0702 17.1354 55.4958 17.1354H55.4227V16.7444H55.5185C55.816 16.7444 55.9696 16.584 56.0106 16.1953L56.2042 14.4656H57.9476" fill="white"/>
<path d="M61.9513 15.7986C61.9513 15.2344 61.5481 14.8121 61.0168 14.8121C60.4805 14.8121 60.0815 15.2344 60.0815 15.7986C60.0815 16.3579 60.4805 16.7755 61.0168 16.7755C61.553 16.7755 61.9513 16.3579 61.9513 15.7986ZM62.3789 15.7986C62.3789 16.5945 61.8028 17.1802 61.0168 17.1802C60.295 17.1802 59.7497 16.6862 59.6653 15.9895H59.2083V17.1273H58.7895V14.4656H59.2083V15.5982H59.6664C59.7545 14.9015 60.3019 14.4077 61.0168 14.4077C61.7984 14.4077 62.3789 14.9982 62.3789 15.7986" fill="white"/>
<path d="M63.8084 15.9304H63.428V17.122H63.0092V14.4657H63.428V15.5436H63.8145L64.6348 14.4657H65.145L64.1747 15.7393L65.243 17.122H64.7194L63.8084 15.9304" fill="white"/>
<path d="M65.3841 15.794C65.3841 15.002 65.9791 14.4077 66.7659 14.4077C67.4003 14.4077 67.8977 14.7852 68.0588 15.361H67.6442C67.4877 15.0204 67.1575 14.8122 66.7659 14.8122C66.2199 14.8122 65.8117 15.2388 65.8117 15.794C65.8117 16.3485 66.2248 16.7755 66.7659 16.7755C67.157 16.7755 67.4783 16.5677 67.6404 16.2127H68.0641C67.9019 16.7988 67.3943 17.18 66.7659 17.18C65.9795 17.18 65.3841 16.585 65.3841 15.794Z" fill="white"/>
<path d="M68.5596 15.5455H70.1216V15.9502H68.5596V15.5455Z" fill="white"/>
<path d="M71.6816 15.9304H71.3013V17.122H70.8825V14.4657H71.3013V15.5436H71.6878L72.508 14.4657H73.0182L72.0479 15.7393L73.1162 17.122H72.5926L71.6816 15.9304" fill="white"/>
<path d="M75.7372 14.4656V17.122H75.3228V14.8302H74.3455L74.2055 16.1734C74.1324 16.8835 73.8599 17.1354 73.2856 17.1354H73.2124V16.7444H73.308C73.6057 16.7444 73.7593 16.584 73.8006 16.1953L73.994 14.4656H75.7372" fill="white"/>
<path d="M78.7526 15.7939C78.7526 15.2289 78.3411 14.8121 77.777 14.8121C77.2141 14.8121 76.7967 15.2348 76.7967 15.7939C76.7967 16.3535 77.2141 16.7755 77.777 16.7755C78.3411 16.7755 78.7526 16.3588 78.7526 15.7939ZM79.1799 14.4656V17.122H78.8332L78.7893 16.7196C78.5441 17.0055 78.1776 17.1802 77.7456 17.1802C76.9595 17.1802 76.3691 16.585 76.3691 15.7939C76.3691 14.9982 76.9595 14.4077 77.7456 14.4077C78.1804 14.4077 78.5494 14.5835 78.7946 14.8729L78.8466 14.4656H79.1799Z" fill="white"/>
<path d="M79.8108 15.794C79.8108 15.002 80.4058 14.4077 81.1926 14.4077C81.827 14.4077 82.3247 14.7852 82.4855 15.361H82.0709C81.9144 15.0204 81.5842 14.8122 81.1926 14.8122C80.6466 14.8122 80.2384 15.2388 80.2384 15.794C80.2384 16.3485 80.6515 16.7755 81.1926 16.7755C81.584 16.7755 81.905 16.5677 82.0674 16.2127H82.4908C82.3286 16.7988 81.8213 17.18 81.1926 17.18C80.4062 17.18 79.8108 16.585 79.8108 15.794" fill="white"/>
<path d="M85.4199 14.4656L84.1523 17.232C83.8655 17.8609 83.6126 18.07 83.1108 18.07H82.8603V17.6921H83.0747C83.4307 17.6921 83.5562 17.5835 83.7702 17.14L83.8658 16.941L82.6825 14.4656H83.138L84.0835 16.4762L84.9739 14.4656H85.4199" fill="white"/>
<path d="M14.1284 6.27338V0.485314H17.086V6.18384C17.086 7.97385 17.8328 8.69012 19.0725 8.69012C20.2972 8.69012 21.0441 7.97385 21.0441 6.18384V0.485314H23.9568V6.27338C23.9568 9.39103 22.1346 11.1365 19.0426 11.1365C15.9508 11.1365 14.1284 9.39103 14.1284 6.27338" fill="#3D5CB3"/>
<path d="M37.6535 0.485287V10.9276H35.2187L30.6034 5.36332V10.9276H27.7057V0.485287H30.1405L34.7558 6.04952V0.485287H37.6535" fill="#3D5CB3"/>
<path d="M41.4923 0.485287H44.45V10.9276H41.4923V0.485287Z" fill="#3D5CB3"/>
<path d="M47.7655 5.70631C47.7655 2.52898 50.2001 0.276592 53.5161 0.276592C55.4431 0.276592 56.9963 0.977726 58.0119 2.24568L56.1302 3.94615C55.4727 3.1555 54.6664 2.72297 53.6655 2.72297C51.948 2.72297 50.7529 3.91631 50.7529 5.70631C50.7529 7.49654 51.948 8.69009 53.6655 8.69009C54.6664 8.69009 55.4727 8.25735 56.1302 7.46669L58.0119 9.16738C56.9963 10.4353 55.4431 11.1364 53.5161 11.1364C50.2001 11.1364 47.7655 8.88409 47.7655 5.70631" fill="#3D5CB3"/>
<path d="M82.7015 10.9276L82.6718 5.39315L79.983 9.89835H78.6687L75.995 5.54237V10.9276H73.2619V0.485287H75.6964L79.3707 6.51189L82.9555 0.485287H85.39L85.4199 10.9276H82.7015" fill="#3D5CB3"/>
<path d="M68.1113 0.62706L67.0714 3.16053C67.8613 3.62443 68.3598 4.48795 68.3598 5.55247C68.3598 7.16012 67.2265 8.3155 65.6605 8.3155V8.31528C65.4254 8.31528 65.2013 8.28611 64.9875 8.23629L63.9623 10.7338C64.4918 10.8742 65.0602 10.9495 65.6605 10.9495V10.9493C68.9595 10.9493 71.3112 8.70085 71.3112 5.55204C71.3112 3.25907 70.0631 1.44449 68.1113 0.62706" fill="white"/>
<path d="M62.944 5.55225C62.944 3.95272 64.0945 2.78901 65.6605 2.78901C65.8833 2.78901 66.0962 2.8149 66.2995 2.85966L67.3247 0.362387C66.8053 0.22721 66.2483 0.154579 65.6605 0.154579C62.3532 0.154579 59.9931 2.41179 59.9931 5.55204C59.9931 7.829 61.2344 9.64073 63.1774 10.4652L64.2195 7.92665C63.4393 7.45726 62.944 6.59966 62.944 5.55225" fill="white"/>
<path d="M5.35553 2.16863V3.26587H10.9086V2.16863H5.35553Z" fill="white"/>
<path d="M0.394348 5.09689V6.19412H10.9086V5.09689H0.394348Z" fill="white"/>
<path d="M7.40378 8.02538V9.12262H10.9086V8.02538H7.40378Z" fill="white"/>
</svg>
